<mxfile host="app.diagrams.net" agent="Mozilla/5.0 (Windows NT 10.0; Win64; x64) AppleWebKit/537.36 (KHTML, like Gecko) Chrome/133.0.0.0 Safari/537.36 OPR/118.0.0.0" version="27.0.6">
  <diagram name="PÃ¡gina-1" id="cD-U_-u4l6rcsm08kq4a">
    <mxGraphModel dx="3078" dy="1751" grid="1" gridSize="10" guides="1" tooltips="1" connect="1" arrows="1" fold="1" page="1" pageScale="1" pageWidth="5000" pageHeight="2500" math="0" shadow="0">
      <root>
        <mxCell id="0" />
        <mxCell id="1" parent="0" />
        <mxCell id="-sTfq_-YhvA8usg72Ecp-22" value="" style="group" parent="1" vertex="1" connectable="0">
          <mxGeometry x="1045" y="480" width="400" height="510" as="geometry" />
        </mxCell>
        <mxCell id="-sTfq_-YhvA8usg72Ecp-23" value="" style="rounded=1;whiteSpace=wrap;html=1;" parent="-sTfq_-YhvA8usg72Ecp-22" vertex="1">
          <mxGeometry width="400" height="410" as="geometry" />
        </mxCell>
        <mxCell id="-sTfq_-YhvA8usg72Ecp-24" value="Tablas replica unp_auth" style="text;html=1;align=center;verticalAlign=middle;whiteSpace=wrap;rounded=0;" parent="-sTfq_-YhvA8usg72Ecp-22" vertex="1">
          <mxGeometry x="130.68" width="138.65" height="30" as="geometry" />
        </mxCell>
        <mxCell id="-sTfq_-YhvA8usg72Ecp-25" value="eco_usr_basicosusuario&lt;div&gt;eco_usr_asesorpoblacional&lt;/div&gt;&lt;div&gt;eco_usr_ccelectronico&lt;/div&gt;&lt;div&gt;eco_usr_complementariosusuario&lt;/div&gt;&lt;div&gt;eco_usr_contacto&lt;/div&gt;&lt;div&gt;eco_usr_ctelefono&lt;/div&gt;&lt;div&gt;eco_usr_datoscontrato&lt;/div&gt;&lt;div&gt;eco_usr_datosresolucion&lt;/div&gt;&lt;div&gt;eco_usr_direccionrural&lt;/div&gt;&lt;div&gt;eco_usr_direccionurbana&lt;/div&gt;" style="rounded=0;whiteSpace=wrap;html=1;" parent="-sTfq_-YhvA8usg72Ecp-22" vertex="1">
          <mxGeometry x="37.239999999999995" y="80" width="325.52" height="290" as="geometry" />
        </mxCell>
        <mxCell id="-sTfq_-YhvA8usg72Ecp-27" value="slot_Unidireccional" style="text;html=1;align=center;verticalAlign=middle;whiteSpace=wrap;rounded=0;" parent="-sTfq_-YhvA8usg72Ecp-22" vertex="1">
          <mxGeometry x="176.55517241379312" y="80" width="41.37931034482759" height="30" as="geometry" />
        </mxCell>
        <mxCell id="-sTfq_-YhvA8usg72Ecp-38" value="" style="endArrow=none;html=1;rounded=0;" parent="-sTfq_-YhvA8usg72Ecp-22" edge="1">
          <mxGeometry width="50" height="50" relative="1" as="geometry">
            <mxPoint x="148.2789655172414" y="110" as="sourcePoint" />
            <mxPoint x="251.72724137931036" y="110" as="targetPoint" />
          </mxGeometry>
        </mxCell>
        <mxCell id="-sTfq_-YhvA8usg72Ecp-29" value="" style="group" parent="1" vertex="1" connectable="0">
          <mxGeometry x="270" y="1260" width="580" height="510" as="geometry" />
        </mxCell>
        <mxCell id="-sTfq_-YhvA8usg72Ecp-30" value="" style="rounded=1;whiteSpace=wrap;html=1;" parent="-sTfq_-YhvA8usg72Ecp-29" vertex="1">
          <mxGeometry width="580" height="410" as="geometry" />
        </mxCell>
        <mxCell id="-sTfq_-YhvA8usg72Ecp-31" value="Tablas replica sesp_ser" style="text;html=1;align=center;verticalAlign=middle;whiteSpace=wrap;rounded=0;" parent="-sTfq_-YhvA8usg72Ecp-29" vertex="1">
          <mxGeometry x="219.45945945945945" width="141.08108108108107" height="30" as="geometry" />
        </mxCell>
        <mxCell id="-sTfq_-YhvA8usg72Ecp-32" value="&lt;div&gt;eco_reg_estadoregistro&lt;/div&gt;&lt;div&gt;eco_reg_radicado&lt;/div&gt;&lt;div&gt;eco_reg_registro&lt;/div&gt;&lt;div&gt;eco_reg_trazabilidad&lt;br&gt;&lt;/div&gt;&lt;div&gt;eco_reg_rllamadas&lt;/div&gt;&lt;div&gt;eco_reg_infollamada&lt;/div&gt;&lt;div&gt;eco_reg_fhllamada&lt;/div&gt;&lt;div&gt;eco_reg_mcllamada&lt;/div&gt;&lt;div&gt;eco_reg_otromedio&lt;/div&gt;&lt;div&gt;eco_reg_tllamada&lt;/div&gt;&lt;div&gt;eco_reg_ellamada&lt;/div&gt;&lt;div&gt;eco_reg_ullamada&lt;/div&gt;&lt;div&gt;eco_reg_otraubicacion&lt;/div&gt;&lt;div&gt;eco_reg_mtelcontacto&lt;/div&gt;&lt;div&gt;eco_reg_mvirtual&lt;/div&gt;" style="rounded=0;whiteSpace=wrap;html=1;" parent="-sTfq_-YhvA8usg72Ecp-29" vertex="1">
          <mxGeometry x="50" y="80" width="230" height="290" as="geometry" />
        </mxCell>
        <mxCell id="-sTfq_-YhvA8usg72Ecp-34" value="slot_Bidireccional" style="text;html=1;align=center;verticalAlign=middle;whiteSpace=wrap;rounded=0;" parent="-sTfq_-YhvA8usg72Ecp-29" vertex="1">
          <mxGeometry x="130" y="80" width="60" height="30" as="geometry" />
        </mxCell>
        <mxCell id="-sTfq_-YhvA8usg72Ecp-40" value="" style="endArrow=none;html=1;rounded=0;" parent="-sTfq_-YhvA8usg72Ecp-29" edge="1">
          <mxGeometry width="50" height="50" relative="1" as="geometry">
            <mxPoint x="85" y="109" as="sourcePoint" />
            <mxPoint x="235" y="109" as="targetPoint" />
          </mxGeometry>
        </mxCell>
        <mxCell id="-sTfq_-YhvA8usg72Ecp-46" value="" style="group" parent="1" vertex="1" connectable="0">
          <mxGeometry x="290" y="490" width="360" height="410" as="geometry" />
        </mxCell>
        <mxCell id="-sTfq_-YhvA8usg72Ecp-1" value="" style="rounded=1;whiteSpace=wrap;html=1;" parent="-sTfq_-YhvA8usg72Ecp-46" vertex="1">
          <mxGeometry width="360" height="410" as="geometry" />
        </mxCell>
        <mxCell id="-sTfq_-YhvA8usg72Ecp-3" value="Tablas replica unp_sesp" style="text;html=1;align=center;verticalAlign=middle;whiteSpace=wrap;rounded=0;" parent="-sTfq_-YhvA8usg72Ecp-46" vertex="1">
          <mxGeometry x="136.21621621621622" width="87.56756756756756" height="30" as="geometry" />
        </mxCell>
        <mxCell id="-sTfq_-YhvA8usg72Ecp-7" value="&lt;div&gt;eco_reg_estadoregistro&lt;/div&gt;&lt;div&gt;eco_reg_radicado&lt;/div&gt;&lt;div&gt;eco_reg_registro&lt;/div&gt;&lt;div&gt;eco_reg_trazabilidad&lt;br&gt;&lt;/div&gt;&lt;div&gt;eco_reg_rllamadas&lt;/div&gt;&lt;div&gt;eco_reg_infollamada&lt;/div&gt;&lt;div&gt;eco_reg_fhllamada&lt;/div&gt;&lt;div&gt;eco_reg_mcllamada&lt;/div&gt;&lt;div&gt;eco_reg_otromedio&lt;/div&gt;&lt;div&gt;eco_reg_tllamada&lt;/div&gt;&lt;div&gt;eco_reg_ellamada&lt;/div&gt;&lt;div&gt;eco_reg_ullamada&lt;/div&gt;&lt;div&gt;eco_reg_otraubicacion&lt;/div&gt;&lt;div&gt;eco_reg_mtelcontacto&lt;/div&gt;&lt;div&gt;eco_reg_mvirtual&lt;/div&gt;" style="rounded=0;whiteSpace=wrap;html=1;" parent="-sTfq_-YhvA8usg72Ecp-46" vertex="1">
          <mxGeometry x="108.6244827586207" y="80" width="142.75862068965517" height="290" as="geometry" />
        </mxCell>
        <mxCell id="-sTfq_-YhvA8usg72Ecp-13" value="Slot_Bidireccional" style="text;html=1;align=center;verticalAlign=middle;whiteSpace=wrap;rounded=0;" parent="-sTfq_-YhvA8usg72Ecp-46" vertex="1">
          <mxGeometry x="161.37965517241378" y="80" width="37.241379310344826" height="30" as="geometry" />
        </mxCell>
        <mxCell id="-sTfq_-YhvA8usg72Ecp-36" value="" style="endArrow=none;html=1;rounded=0;" parent="-sTfq_-YhvA8usg72Ecp-46" edge="1">
          <mxGeometry width="50" height="50" relative="1" as="geometry">
            <mxPoint x="133.45206896551724" y="110" as="sourcePoint" />
            <mxPoint x="226.5555172413793" y="110" as="targetPoint" />
          </mxGeometry>
        </mxCell>
        <mxCell id="-sTfq_-YhvA8usg72Ecp-49" value="UNP_AUX" style="shape=cylinder3;whiteSpace=wrap;html=1;boundedLbl=1;backgroundOutline=1;size=15;" parent="1" vertex="1">
          <mxGeometry x="790" y="250" width="115" height="120" as="geometry" />
        </mxCell>
        <mxCell id="-sTfq_-YhvA8usg72Ecp-50" value="SER_AUX" style="shape=cylinder3;whiteSpace=wrap;html=1;boundedLbl=1;backgroundOutline=1;size=15;" parent="1" vertex="1">
          <mxGeometry x="1190" y="1425" width="110" height="120" as="geometry" />
        </mxCell>
        <mxCell id="-sTfq_-YhvA8usg72Ecp-51" value="SESP_AUX" style="shape=cylinder3;whiteSpace=wrap;html=1;boundedLbl=1;backgroundOutline=1;size=15;" parent="1" vertex="1">
          <mxGeometry x="375" y="1040" width="120" height="120" as="geometry" />
        </mxCell>
        <mxCell id="-sTfq_-YhvA8usg72Ecp-52" value="AUTH_AUX" style="shape=cylinder3;whiteSpace=wrap;html=1;boundedLbl=1;backgroundOutline=1;size=15;" parent="1" vertex="1">
          <mxGeometry x="1610" y="645" width="120" height="120" as="geometry" />
        </mxCell>
        <mxCell id="-sTfq_-YhvA8usg72Ecp-54" value="" style="endArrow=none;html=1;rounded=0;endFill=1;startFill=1;startArrow=block;" parent="1" source="-sTfq_-YhvA8usg72Ecp-51" target="-sTfq_-YhvA8usg72Ecp-25" edge="1">
          <mxGeometry width="50" height="50" relative="1" as="geometry">
            <mxPoint x="810" y="712.909090909091" as="sourcePoint" />
            <mxPoint x="850" y="370" as="targetPoint" />
          </mxGeometry>
        </mxCell>
        <mxCell id="-sTfq_-YhvA8usg72Ecp-55" value="" style="endArrow=none;html=1;rounded=0;startArrow=block;startFill=1;endFill=1;" parent="1" source="-sTfq_-YhvA8usg72Ecp-49" target="-sTfq_-YhvA8usg72Ecp-25" edge="1">
          <mxGeometry width="50" height="50" relative="1" as="geometry">
            <mxPoint x="1000" y="480" as="sourcePoint" />
            <mxPoint x="1135" y="320" as="targetPoint" />
          </mxGeometry>
        </mxCell>
        <mxCell id="-sTfq_-YhvA8usg72Ecp-56" value="" style="endArrow=block;html=1;rounded=0;startArrow=block;startFill=1;endFill=1;" parent="1" source="-sTfq_-YhvA8usg72Ecp-51" target="-sTfq_-YhvA8usg72Ecp-7" edge="1">
          <mxGeometry width="50" height="50" relative="1" as="geometry">
            <mxPoint x="720" y="1070" as="sourcePoint" />
            <mxPoint x="855" y="910" as="targetPoint" />
          </mxGeometry>
        </mxCell>
        <mxCell id="-sTfq_-YhvA8usg72Ecp-58" value="" style="endArrow=none;html=1;rounded=0;endFill=1;startArrow=block;startFill=1;" parent="1" source="-sTfq_-YhvA8usg72Ecp-25" target="-sTfq_-YhvA8usg72Ecp-52" edge="1">
          <mxGeometry width="50" height="50" relative="1" as="geometry">
            <mxPoint x="990" y="920" as="sourcePoint" />
            <mxPoint x="1108" y="1070" as="targetPoint" />
          </mxGeometry>
        </mxCell>
        <mxCell id="-sTfq_-YhvA8usg72Ecp-60" value="" style="endArrow=block;html=1;rounded=0;startArrow=block;startFill=1;endFill=1;" parent="1" source="-sTfq_-YhvA8usg72Ecp-32" target="-sTfq_-YhvA8usg72Ecp-51" edge="1">
          <mxGeometry width="50" height="50" relative="1" as="geometry">
            <mxPoint x="434" y="1190" as="sourcePoint" />
            <mxPoint x="380" y="1030" as="targetPoint" />
          </mxGeometry>
        </mxCell>
        <mxCell id="-sTfq_-YhvA8usg72Ecp-62" value="" style="endArrow=block;html=1;rounded=0;startArrow=block;startFill=1;endFill=1;" parent="1" source="-sTfq_-YhvA8usg72Ecp-50" target="-sTfq_-YhvA8usg72Ecp-32" edge="1">
          <mxGeometry width="50" height="50" relative="1" as="geometry">
            <mxPoint x="350" y="1920" as="sourcePoint" />
            <mxPoint x="403" y="1790" as="targetPoint" />
          </mxGeometry>
        </mxCell>
        <mxCell id="-sTfq_-YhvA8usg72Ecp-63" value="" style="endArrow=block;html=1;rounded=0;endFill=1;startFill=1;startArrow=block;exitX=0.696;exitY=0;exitDx=0;exitDy=0;exitPerimeter=0;" parent="1" source="-sTfq_-YhvA8usg72Ecp-7" target="-sTfq_-YhvA8usg72Ecp-49" edge="1">
          <mxGeometry width="50" height="50" relative="1" as="geometry">
            <mxPoint x="540" y="375" as="sourcePoint" />
            <mxPoint x="812" y="370" as="targetPoint" />
          </mxGeometry>
        </mxCell>
        <mxCell id="Vz7aEOK7TQxu1i3zODMW-1" value="" style="endArrow=none;html=1;rounded=0;endFill=1;startFill=1;startArrow=block;" edge="1" parent="1" source="-sTfq_-YhvA8usg72Ecp-50" target="-sTfq_-YhvA8usg72Ecp-25">
          <mxGeometry width="50" height="50" relative="1" as="geometry">
            <mxPoint x="797.2435897435898" y="1340" as="sourcePoint" />
            <mxPoint x="1252" y="780" as="targetPoint" />
          </mxGeometry>
        </mxCell>
      </root>
    </mxGraphModel>
  </diagram>
</mxfile>
